<svg width="29" height="12" viewBox="0 0 29 12" fill="none" xmlns="http://www.w3.org/2000/svg">
<path d="M5.29885 1.54709C4.95901 1.95237 4.41515 2.27215 3.87134 2.22643C3.80337 1.67844 4.06958 1.09609 4.38116 0.736415C4.72101 0.319716 5.31585 0.0228328 5.79735 0C5.85399 0.570877 5.63309 1.13034 5.29891 1.54709H5.29885ZM5.79168 2.33494C5.00427 2.28927 4.33019 2.78589 3.9563 2.78589C3.57681 2.78589 3.00463 2.35777 2.38152 2.36919C1.5715 2.3806 0.818071 2.84297 0.404538 3.57944C-0.445184 5.05233 0.18364 7.23314 1.00499 8.43198C1.40719 9.02569 1.88869 9.67648 2.52312 9.65365C3.12363 9.63081 3.36152 9.25978 4.08663 9.25978C4.81735 9.25978 5.02698 9.65365 5.66141 9.64223C6.3185 9.63081 6.73203 9.04858 7.13424 8.45481C7.59302 7.78119 7.78 7.12463 7.79132 7.09038C7.78 7.07896 6.52246 6.59377 6.51113 5.13224C6.4998 3.91057 7.50246 3.32828 7.54777 3.29403C6.98125 2.4491 6.0976 2.35777 5.79168 2.33494V2.33494ZM10.3405 0.679333V9.5795H11.7113V6.53668H13.609C15.3424 6.53668 16.5603 5.33785 16.5603 3.60233C16.5603 1.86687 15.365 0.67939 13.6543 0.67939H10.3404L10.3405 0.679333ZM11.7113 1.84398H13.2917C14.4814 1.84398 15.1611 2.48335 15.1611 3.60798C15.1611 4.73261 14.4814 5.37775 13.2861 5.37775H11.7113V1.84398V1.84398ZM19.0641 9.64794C19.9252 9.64794 20.7238 9.20841 21.0864 8.51189H21.1147V9.57944H22.3836V5.14936C22.3836 3.86491 21.364 3.0371 19.7948 3.0371C18.339 3.0371 17.2627 3.87632 17.2231 5.02949H18.458C18.5599 4.48145 19.064 4.12177 19.7552 4.12177C20.5936 4.12177 21.0637 4.5157 21.0637 5.24075V5.73166L19.353 5.83441C17.7612 5.93144 16.9002 6.588 16.9002 7.72981C16.9002 8.88298 17.7895 9.64794 19.0641 9.64794ZM19.4323 8.59181C18.7016 8.59181 18.237 8.2379 18.237 7.69551C18.237 7.1361 18.6846 6.81068 19.5399 6.7593L21.0637 6.66227V7.16459C21.0637 7.9981 20.3613 8.59181 19.4323 8.59181H19.4323ZM24.0774 12C25.4143 12 26.043 11.4863 26.5925 9.9277L29 3.12273H27.6065L25.992 8.38055H25.9637L24.3493 3.12273H22.9161L25.2386 9.60227L25.114 9.99619C24.9044 10.6641 24.5645 10.921 23.9584 10.921C23.8508 10.921 23.6412 10.9096 23.5562 10.8982V11.9658C23.6355 11.9886 23.9754 12 24.0774 12V12Z" fill="#333333"/>
</svg>
