<svg width="14" height="16" viewBox="0 0 14 16" fill="none" xmlns="http://www.w3.org/2000/svg">
<rect x="4" y="2" width="6" height="11" fill="#333333"/>
<path fill-rule="evenodd" clip-rule="evenodd" d="M7.00001 0C6.31001 0 5.15701 0.265 4.07201 0.56C2.96201 0.86 1.84301 1.215 1.18501 1.43C0.909897 1.52085 0.665996 1.68747 0.481322 1.9107C0.296648 2.13394 0.178693 2.40474 0.141005 2.692C-0.454995 7.169 0.928005 10.487 2.60601 12.682C3.31759 13.621 4.16603 14.4478 5.12301 15.135C5.50901 15.408 5.86701 15.617 6.17101 15.76C6.45101 15.892 6.75201 16 7.00001 16C7.24801 16 7.54801 15.892 7.82901 15.76C8.19549 15.5819 8.5461 15.3728 8.87701 15.135C9.834 14.4479 10.6824 13.621 11.394 12.682C13.072 10.487 14.455 7.169 13.859 2.692C13.8214 2.4046 13.7035 2.13364 13.5188 1.91023C13.3341 1.68683 13.0902 1.52003 12.815 1.429C11.8598 1.11581 10.8972 0.825729 9.92801 0.559C8.84301 0.266 7.69001 0 7.00001 0ZM6.45001 8.502L6.10001 4.995C6.08669 4.86884 6.10004 4.74129 6.13921 4.62063C6.17837 4.49996 6.24246 4.38888 6.32732 4.29459C6.41219 4.20029 6.51593 4.12489 6.63182 4.07328C6.7477 4.02167 6.87315 3.995 7.00001 3.995C7.12687 3.995 7.25231 4.02167 7.36819 4.07328C7.48408 4.12489 7.58782 4.20029 7.67269 4.29459C7.75755 4.38888 7.82164 4.49996 7.86081 4.62063C7.89997 4.74129 7.91332 4.86884 7.9 4.995L7.55001 8.502C7.53825 8.63977 7.47521 8.76811 7.37336 8.86164C7.27151 8.95516 7.13828 9.00705 7.00001 9.00705C6.86173 9.00705 6.7285 8.95516 6.62665 8.86164C6.5248 8.76811 6.46176 8.63977 6.45001 8.502V8.502ZM7.00201 12C6.73679 12 6.48243 11.8946 6.2949 11.7071C6.10736 11.5196 6.00201 11.2652 6.00201 11C6.00201 10.7348 6.10736 10.4804 6.2949 10.2929C6.48243 10.1054 6.73679 10 7.00201 10C7.26722 10 7.52158 10.1054 7.70911 10.2929C7.89665 10.4804 8.00201 10.7348 8.00201 11C8.00201 11.2652 7.89665 11.5196 7.70911 11.7071C7.52158 11.8946 7.26722 12 7.00201 12Z" fill="#FF9208"/>
</svg>
